<svg xmlns="http://www.w3.org/2000/svg" width="1280" height="1280" viewBox="0 0 1280 1280"><style>.o{stroke:#2B2320;stroke-width:2.2;stroke-linecap:round;stroke-linejoin:round}.n{fill:none;stroke-linecap:round;stroke-linejoin:round}.t{stroke-width:1.5}.b{stroke-width:3}text{font-family:Georgia,'Times New Roman',serif}</style><rect width="1280" height="1280" fill="#FBF8F3"/><g transform="translate(20,20) scale(1)"><rect width="610" height="400" rx="24" fill="#F3EDE2"/><g transform="translate(158,120) scale(1)"><ellipse cy="188" rx="72" ry="7" opacity=".1"/><path class="n" d="M-40,160C-80,176-112,150-104,112C-101,98-108,88-118,86" stroke="#2B2320" stroke-width="15.4"/><path class="n" d="M-40,160C-80,176-112,150-104,112C-101,98-108,88-118,86" stroke="#D98A45" stroke-width="11"/><path class="n" d="M-104,112C-101,98-108,88-118,86" stroke="#F7EBDD" stroke-width="11"/><rect class="o" x="5" y="140" width="27" height="38" rx="4" fill="#3A3A44"/><g transform="scale(-1,1)"><rect class="o" x="5" y="140" width="27" height="38" rx="4" fill="#3A3A44"/></g><path class="o" fill="#33415C" d="M-30,44C-46,60-50,110-46,150L46,150C50,110 46,60 30,44Z"/><path class="o t" fill="#fff" d="M-15,46L0,100L15,46Z"/><path class="o t" fill="#8C2F39" d="M-5,50L5,50L3,60L6,86L0,93L-6,86L-3,60Z"/><path class="o n t" d="M-3,60L3,60"/><path class="o t" fill="#3F5074" d="M-15,46L0,100L-9,102L-26,62Z"/><g transform="scale(-1,1)"><path class="o t" fill="#3F5074" d="M-15,46L0,100L-9,102L-26,62Z"/></g><path class="o n t" d="M0,100L0,150"/><circle cx="0" cy="120" r="3" fill="#C9A24B"/><circle cx="0" cy="136" r="3" fill="#C9A24B"/><ellipse class="o" cx="20" cy="178" rx="17" ry="8" fill="#F7EBDD"/><g transform="scale(-1,1)"><ellipse class="o" cx="20" cy="178" rx="17" ry="8" fill="#F7EBDD"/></g><path class="o" fill="#D98A45" d="M-52,-16L-50,-76Q-47,-84-40,-78L-10,-44Z"/><path fill="#D9958A" d="M-45,-34L-45,-68L-24,-46Z"/><g transform="scale(-1,1)"><path class="o" fill="#D98A45" d="M-52,-16L-50,-76Q-47,-84-40,-78L-10,-44Z"/><path fill="#D9958A" d="M-45,-34L-45,-68L-24,-46Z"/></g><path class="o" fill="#D98A45" d="M0,-50C34,-50 58,-30 58,-2C58,10 62,16 70,24C56,26 50,40 30,47C18,51-18,51-30,47C-50,40-56,26-70,24C-62,16-58,10-58,-2C-58,-30-34,-50 0,-50Z"/><path class="n" stroke="#B5652A" stroke-width="5" d="M0,-42L0,-30M-13,-40L-11,-29M13,-40L11,-29"/><path class="n" stroke="#B5652A" stroke-width="4" d="M54,6L45,9M56,15L47,17"/><g transform="scale(-1,1)"><path class="n" stroke="#B5652A" stroke-width="4" d="M54,6L45,9M56,15L47,17"/></g><ellipse cy="24" rx="26" ry="18" fill="#F7EBDD"/><path class="o n t" opacity=".7" d="M30,22L70,15M30,26L73,27M30,30L69,37"/><circle cx="25" cy="-3" r="18" fill="#fff" opacity=".3"/><g transform="scale(-1,1)"><path class="o n t" opacity=".7" d="M30,22L70,15M30,26L73,27M30,30L69,37"/><circle cx="25" cy="-3" r="18" fill="#fff" opacity=".3"/></g><g transform="translate(-25,-3) scale(-1,1) rotate(-8)"><path class="o t" fill="#8DA868" d="M-10,1C-6,-9 5,-10 10,-2C6,8-5,9-10,1Z"/><ellipse cy="-0.5" rx="2.8" ry="5.2" fill="#2B2320"/><circle cx="-3" cy="-3.5" r="1.6" fill="#fff"/><path class="o n b" d="M-10,1C-6,-9 5,-10 10,-2"/></g><g transform="translate(25,-3) scale(1,1) rotate(-8)"><path class="o t" fill="#8DA868" d="M-10,1C-6,-9 5,-10 10,-2C6,8-5,9-10,1Z"/><ellipse cy="-0.5" rx="2.8" ry="5.2" fill="#2B2320"/><circle cx="-3" cy="-3.5" r="1.6" fill="#fff"/><path class="o n b" d="M-10,1C-6,-9 5,-10 10,-2"/></g><circle class="o n" cx="25" cy="-3" r="18"/><path class="o n" d="M43,-5L56,-9"/><g transform="scale(-1,1)"><circle class="o n" cx="25" cy="-3" r="18"/><path class="o n" d="M43,-5L56,-9"/></g><path class="o n" d="M-7,-5Q0,-10 7,-5"/><path class="o t" fill="#D9958A" d="M-5,14Q0,12 5,14Q3,20 0,20.5Q-3,20-5,14Z"/><path class="o n t" d="M-12,23Q-11,29-6,29Q0,29 0,21Q0,29 6,29Q11,29 12,23"/><path class="n" d="M-40,64L-52,122" stroke="#2B2320" stroke-width="19.4"/><path class="n" d="M-40,64L-52,122" stroke="#33415C" stroke-width="15"/><circle class="o" cx="-52" cy="122" r="8.5" fill="#F7EBDD"/><path class="n" d="M40,64L52,122" stroke="#2B2320" stroke-width="19.4"/><path class="n" d="M40,64L52,122" stroke="#33415C" stroke-width="15"/><circle class="o" cx="52" cy="122" r="8.5" fill="#F7EBDD"/></g><text x="300" y="84" font-size="30" style="fill:#2B2320;text-anchor:start;font-weight:bold">Professor Amber</text><text x="300" y="110" font-size="15" style="fill:#B5652A;text-anchor:start;font-style:italic">Homeroom teacher · Whisker Academy</text><text x="300" y="150" font-size="14.5" style="fill:#2B2320;text-anchor:start;"><tspan style="fill:#B5652A;font-weight:bold">Tenure</tspan>  Nine lives and counting</text><text x="300" y="178" font-size="14.5" style="fill:#2B2320;text-anchor:start;"><tspan style="fill:#B5652A;font-weight:bold">Look</tspan>  Round specs, navy blazer, wine tie</text><text x="300" y="206" font-size="14.5" style="fill:#2B2320;text-anchor:start;"><tspan style="fill:#B5652A;font-weight:bold">Temper</tspan>  Patient, precise, naps at noon</text><text x="300" y="234" font-size="14.5" style="fill:#2B2320;text-anchor:start;"><tspan style="fill:#B5652A;font-weight:bold">Loves</tspan>  Dried fish and tidy handwriting</text><text x="300" y="262" font-size="14.5" style="fill:#2B2320;text-anchor:start;"><tspan style="fill:#B5652A;font-weight:bold">Motto</tspan>  &#8220;Curiosity made the cat.&#8221;</text><circle class="o t" cx="316" cy="316" r="15" fill="#D98A45"/><text x="316" y="350" font-size="8" style="fill:#2B2320;text-anchor:middle;">#D98A45</text><circle class="o t" cx="359" cy="316" r="15" fill="#B5652A"/><text x="359" y="350" font-size="8" style="fill:#2B2320;text-anchor:middle;">#B5652A</text><circle class="o t" cx="402" cy="316" r="15" fill="#F7EBDD"/><text x="402" y="350" font-size="8" style="fill:#2B2320;text-anchor:middle;">#F7EBDD</text><circle class="o t" cx="445" cy="316" r="15" fill="#33415C"/><text x="445" y="350" font-size="8" style="fill:#2B2320;text-anchor:middle;">#33415C</text><circle class="o t" cx="488" cy="316" r="15" fill="#8C2F39"/><text x="488" y="350" font-size="8" style="fill:#2B2320;text-anchor:middle;">#8C2F39</text><circle class="o t" cx="531" cy="316" r="15" fill="#C9A24B"/><text x="531" y="350" font-size="8" style="fill:#2B2320;text-anchor:middle;">#C9A24B</text><circle class="o t" cx="574" cy="316" r="15" fill="#2B2320"/><text x="574" y="350" font-size="8" style="fill:#2B2320;text-anchor:middle;">#2B2320</text></g><g transform="translate(650,20) scale(1)"><rect width="610" height="400" rx="24" fill="#E4EAE4"/><text x="305" y="40" font-size="20" style="fill:#2B2320;text-anchor:middle;font-weight:bold">Professor Amber · Expressions</text><g transform="translate(110,140) scale(0.9)"><path class="o" fill="#D98A45" d="M-52,-16L-50,-76Q-47,-84-40,-78L-10,-44Z"/><path fill="#D9958A" d="M-45,-34L-45,-68L-24,-46Z"/><g transform="scale(-1,1)"><path class="o" fill="#D98A45" d="M-52,-16L-50,-76Q-47,-84-40,-78L-10,-44Z"/><path fill="#D9958A" d="M-45,-34L-45,-68L-24,-46Z"/></g><path class="o" fill="#D98A45" d="M0,-50C34,-50 58,-30 58,-2C58,10 62,16 70,24C56,26 50,40 30,47C18,51-18,51-30,47C-50,40-56,26-70,24C-62,16-58,10-58,-2C-58,-30-34,-50 0,-50Z"/><path class="n" stroke="#B5652A" stroke-width="5" d="M0,-42L0,-30M-13,-40L-11,-29M13,-40L11,-29"/><path class="n" stroke="#B5652A" stroke-width="4" d="M54,6L45,9M56,15L47,17"/><g transform="scale(-1,1)"><path class="n" stroke="#B5652A" stroke-width="4" d="M54,6L45,9M56,15L47,17"/></g><ellipse cy="24" rx="26" ry="18" fill="#F7EBDD"/><path class="o n t" opacity=".7" d="M30,22L70,15M30,26L73,27M30,30L69,37"/><circle cx="25" cy="-3" r="18" fill="#fff" opacity=".3"/><g transform="scale(-1,1)"><path class="o n t" opacity=".7" d="M30,22L70,15M30,26L73,27M30,30L69,37"/><circle cx="25" cy="-3" r="18" fill="#fff" opacity=".3"/></g><g transform="translate(-25,-3) scale(-1,1) rotate(-8)"><path class="o n b" d="M-9,2Q0,-8 9,2"/></g><g transform="translate(25,-3) scale(1,1) rotate(-8)"><path class="o n b" d="M-9,2Q0,-8 9,2"/></g><circle class="o n" cx="25" cy="-3" r="18"/><path class="o n" d="M43,-5L56,-9"/><g transform="scale(-1,1)"><circle class="o n" cx="25" cy="-3" r="18"/><path class="o n" d="M43,-5L56,-9"/></g><path class="o n" d="M-7,-5Q0,-10 7,-5"/><path class="o t" fill="#D9958A" d="M-5,14Q0,12 5,14Q3,20 0,20.5Q-3,20-5,14Z"/><path class="o t" fill="#8C3A3A" d="M-6,29Q0,29 0,21Q0,29 6,29Q5,38 0,38Q-5,38-6,29Z"/><path class="o n t" d="M-12,23Q-11,29-6,29Q0,29 0,21Q0,29 6,29Q11,29 12,23"/></g><text x="110" y="210" font-size="17" style="fill:#2B2320;text-anchor:middle;font-style:italic">Happy</text><g transform="translate(305,140) scale(0.9)"><path class="o" fill="#D98A45" d="M-52,-16L-50,-76Q-47,-84-40,-78L-10,-44Z"/><path fill="#D9958A" d="M-45,-34L-45,-68L-24,-46Z"/><g transform="scale(-1,1)"><path class="o" fill="#D98A45" d="M-52,-16L-50,-76Q-47,-84-40,-78L-10,-44Z"/><path fill="#D9958A" d="M-45,-34L-45,-68L-24,-46Z"/></g><path class="o" fill="#D98A45" d="M0,-50C34,-50 58,-30 58,-2C58,10 62,16 70,24C56,26 50,40 30,47C18,51-18,51-30,47C-50,40-56,26-70,24C-62,16-58,10-58,-2C-58,-30-34,-50 0,-50Z"/><path class="n" stroke="#B5652A" stroke-width="5" d="M0,-42L0,-30M-13,-40L-11,-29M13,-40L11,-29"/><path class="n" stroke="#B5652A" stroke-width="4" d="M54,6L45,9M56,15L47,17"/><g transform="scale(-1,1)"><path class="n" stroke="#B5652A" stroke-width="4" d="M54,6L45,9M56,15L47,17"/></g><ellipse cy="24" rx="26" ry="18" fill="#F7EBDD"/><path class="o n t" opacity=".7" d="M30,22L70,15M30,26L73,27M30,30L69,37"/><circle cx="25" cy="-3" r="18" fill="#fff" opacity=".3"/><g transform="scale(-1,1)"><path class="o n t" opacity=".7" d="M30,22L70,15M30,26L73,27M30,30L69,37"/><circle cx="25" cy="-3" r="18" fill="#fff" opacity=".3"/></g><g transform="translate(-25,-3) scale(-1,1) rotate(-8)"><path class="o t" fill="#8DA868" d="M-10,0L10,-1C6,8-5,9-10,0Z"/><ellipse cy="3" rx="2.6" ry="3.5" fill="#2B2320"/><path class="o n b" d="M-11,0L11,-1"/></g><g transform="translate(25,-3) scale(1,1) rotate(-8)"><path class="o t" fill="#8DA868" d="M-10,0L10,-1C6,8-5,9-10,0Z"/><ellipse cy="3" rx="2.6" ry="3.5" fill="#2B2320"/><path class="o n b" d="M-11,0L11,-1"/></g><circle class="o n" cx="25" cy="-3" r="18"/><path class="o n" d="M43,-5L56,-9"/><g transform="scale(-1,1)"><circle class="o n" cx="25" cy="-3" r="18"/><path class="o n" d="M43,-5L56,-9"/></g><path class="o n" d="M-7,-5Q0,-10 7,-5"/><path class="o t" fill="#D9958A" d="M-5,14Q0,12 5,14Q3,20 0,20.5Q-3,20-5,14Z"/><path class="o n t" d="M-8,30Q0,24 8,30"/><path class="o n b" d="M-44,-34L-17,-25"/><g transform="scale(-1,1)"><path class="o n b" d="M-44,-34L-17,-25"/></g></g><text x="305" y="210" font-size="17" style="fill:#2B2320;text-anchor:middle;font-style:italic">Stern</text><g transform="translate(500,140) scale(0.9)"><path class="o" fill="#D98A45" d="M-52,-16L-50,-76Q-47,-84-40,-78L-10,-44Z"/><path fill="#D9958A" d="M-45,-34L-45,-68L-24,-46Z"/><g transform="scale(-1,1)"><path class="o" fill="#D98A45" d="M-52,-16L-50,-76Q-47,-84-40,-78L-10,-44Z"/><path fill="#D9958A" d="M-45,-34L-45,-68L-24,-46Z"/></g><path class="o" fill="#D98A45" d="M0,-50C34,-50 58,-30 58,-2C58,10 62,16 70,24C56,26 50,40 30,47C18,51-18,51-30,47C-50,40-56,26-70,24C-62,16-58,10-58,-2C-58,-30-34,-50 0,-50Z"/><path class="n" stroke="#B5652A" stroke-width="5" d="M0,-42L0,-30M-13,-40L-11,-29M13,-40L11,-29"/><path class="n" stroke="#B5652A" stroke-width="4" d="M54,6L45,9M56,15L47,17"/><g transform="scale(-1,1)"><path class="n" stroke="#B5652A" stroke-width="4" d="M54,6L45,9M56,15L47,17"/></g><ellipse cy="24" rx="26" ry="18" fill="#F7EBDD"/><path class="o n t" opacity=".7" d="M30,22L70,15M30,26L73,27M30,30L69,37"/><circle cx="25" cy="-3" r="18" fill="#fff" opacity=".3"/><g transform="scale(-1,1)"><path class="o n t" opacity=".7" d="M30,22L70,15M30,26L73,27M30,30L69,37"/><circle cx="25" cy="-3" r="18" fill="#fff" opacity=".3"/></g><g transform="translate(-25,-3) scale(-1,1) rotate(-8)"><circle class="o t" r="9" fill="#8DA868"/><circle r="3" fill="#2B2320"/><circle cx="-3" cy="-3.5" r="1.6" fill="#fff"/></g><g transform="translate(25,-3) scale(1,1) rotate(-8)"><circle class="o t" r="9" fill="#8DA868"/><circle r="3" fill="#2B2320"/><circle cx="-3" cy="-3.5" r="1.6" fill="#fff"/></g><circle class="o n" cx="25" cy="-3" r="18"/><path class="o n" d="M43,-5L56,-9"/><g transform="scale(-1,1)"><circle class="o n" cx="25" cy="-3" r="18"/><path class="o n" d="M43,-5L56,-9"/></g><path class="o n" d="M-7,-5Q0,-10 7,-5"/><path class="o t" fill="#D9958A" d="M-5,14Q0,12 5,14Q3,20 0,20.5Q-3,20-5,14Z"/><ellipse class="o t" cy="29" rx="3.5" ry="4.5" fill="#8C3A3A"/><text x="82" y="-40" font-size="34" style="fill:#8C2F39;text-anchor:middle;font-weight:bold">!!</text></g><text x="500" y="210" font-size="17" style="fill:#2B2320;text-anchor:middle;font-style:italic">Surprised</text><g transform="translate(110,305) scale(0.9)"><path class="o" fill="#D98A45" d="M-52,-16L-50,-76Q-47,-84-40,-78L-10,-44Z"/><path fill="#D9958A" d="M-45,-34L-45,-68L-24,-46Z"/><g transform="scale(-1,1)"><path class="o" fill="#D98A45" d="M-52,-16L-50,-76Q-47,-84-40,-78L-10,-44Z"/><path fill="#D9958A" d="M-45,-34L-45,-68L-24,-46Z"/></g><path class="o" fill="#D98A45" d="M0,-50C34,-50 58,-30 58,-2C58,10 62,16 70,24C56,26 50,40 30,47C18,51-18,51-30,47C-50,40-56,26-70,24C-62,16-58,10-58,-2C-58,-30-34,-50 0,-50Z"/><path class="n" stroke="#B5652A" stroke-width="5" d="M0,-42L0,-30M-13,-40L-11,-29M13,-40L11,-29"/><path class="n" stroke="#B5652A" stroke-width="4" d="M54,6L45,9M56,15L47,17"/><g transform="scale(-1,1)"><path class="n" stroke="#B5652A" stroke-width="4" d="M54,6L45,9M56,15L47,17"/></g><ellipse cy="24" rx="26" ry="18" fill="#F7EBDD"/><path class="o n t" opacity=".7" d="M30,22L70,15M30,26L73,27M30,30L69,37"/><circle cx="25" cy="-3" r="18" fill="#fff" opacity=".3"/><g transform="scale(-1,1)"><path class="o n t" opacity=".7" d="M30,22L70,15M30,26L73,27M30,30L69,37"/><circle cx="25" cy="-3" r="18" fill="#fff" opacity=".3"/></g><g transform="translate(-25,-3) scale(-1,1) rotate(-8)"><path class="o t" fill="#8DA868" d="M-10,1C-6,-9 5,-10 10,-2C6,8-5,9-10,1Z"/><ellipse cy="-2.5" rx="2.8" ry="4" fill="#2B2320"/><circle cx="-3" cy="-3.5" r="1.6" fill="#fff"/><path class="o n b" d="M-10,1C-6,-9 5,-10 10,-2"/></g><g transform="translate(25,-3) scale(1,1) rotate(-8)"><path class="o t" fill="#8DA868" d="M-10,1C-6,-9 5,-10 10,-2C6,8-5,9-10,1Z"/><ellipse cy="-2.5" rx="2.8" ry="4" fill="#2B2320"/><circle cx="-3" cy="-3.5" r="1.6" fill="#fff"/><path class="o n b" d="M-10,1C-6,-9 5,-10 10,-2"/></g><circle class="o n" cx="25" cy="-3" r="18"/><path class="o n" d="M43,-5L56,-9"/><g transform="scale(-1,1)"><circle class="o n" cx="25" cy="-3" r="18"/><path class="o n" d="M43,-5L56,-9"/></g><path class="o n" d="M-7,-5Q0,-10 7,-5"/><path class="o t" fill="#D9958A" d="M-5,14Q0,12 5,14Q3,20 0,20.5Q-3,20-5,14Z"/><path class="o n t" d="M-7,28L7,28"/><text x="82" y="-40" font-size="34" style="fill:#33415C;text-anchor:middle;font-weight:bold">?</text></g><text x="110" y="375" font-size="17" style="fill:#2B2320;text-anchor:middle;font-style:italic">Thinking</text><g transform="translate(305,305) scale(0.9)"><path class="o" fill="#D98A45" d="M-52,-16L-50,-76Q-47,-84-40,-78L-10,-44Z"/><path fill="#D9958A" d="M-45,-34L-45,-68L-24,-46Z"/><g transform="scale(-1,1)"><path class="o" fill="#D98A45" d="M-52,-16L-50,-76Q-47,-84-40,-78L-10,-44Z"/><path fill="#D9958A" d="M-45,-34L-45,-68L-24,-46Z"/></g><path class="o" fill="#D98A45" d="M0,-50C34,-50 58,-30 58,-2C58,10 62,16 70,24C56,26 50,40 30,47C18,51-18,51-30,47C-50,40-56,26-70,24C-62,16-58,10-58,-2C-58,-30-34,-50 0,-50Z"/><path class="n" stroke="#B5652A" stroke-width="5" d="M0,-42L0,-30M-13,-40L-11,-29M13,-40L11,-29"/><path class="n" stroke="#B5652A" stroke-width="4" d="M54,6L45,9M56,15L47,17"/><g transform="scale(-1,1)"><path class="n" stroke="#B5652A" stroke-width="4" d="M54,6L45,9M56,15L47,17"/></g><ellipse cy="24" rx="26" ry="18" fill="#F7EBDD"/><path class="o n t" opacity=".7" d="M30,22L70,15M30,26L73,27M30,30L69,37"/><circle cx="25" cy="-3" r="18" fill="#fff" opacity=".3"/><g transform="scale(-1,1)"><path class="o n t" opacity=".7" d="M30,22L70,15M30,26L73,27M30,30L69,37"/><circle cx="25" cy="-3" r="18" fill="#fff" opacity=".3"/></g><g transform="translate(-25,-3) scale(-1,1) rotate(-8)"><path class="o n b" d="M-9,-1Q0,6 9,-1"/></g><g transform="translate(25,-3) scale(1,1) rotate(-8)"><path class="o n b" d="M-9,-1Q0,6 9,-1"/></g><circle class="o n" cx="25" cy="-3" r="18"/><path class="o n" d="M43,-5L56,-9"/><g transform="scale(-1,1)"><circle class="o n" cx="25" cy="-3" r="18"/><path class="o n" d="M43,-5L56,-9"/></g><path class="o n" d="M-7,-5Q0,-10 7,-5"/><path class="o t" fill="#D9958A" d="M-5,14Q0,12 5,14Q3,20 0,20.5Q-3,20-5,14Z"/><path class="o n t" d="M-12,23Q-11,29-6,29Q0,29 0,21Q0,29 6,29Q11,29 12,23"/><text x="88" y="-46" font-size="20" style="fill:#7A6A99;text-anchor:middle;font-style:italic">z z z</text></g><text x="305" y="375" font-size="17" style="fill:#2B2320;text-anchor:middle;font-style:italic">Sleepy</text><g transform="translate(500,305) scale(0.9)"><path class="o" fill="#D98A45" d="M-52,-16L-50,-76Q-47,-84-40,-78L-10,-44Z"/><path fill="#D9958A" d="M-45,-34L-45,-68L-24,-46Z"/><g transform="scale(-1,1)"><path class="o" fill="#D98A45" d="M-52,-16L-50,-76Q-47,-84-40,-78L-10,-44Z"/><path fill="#D9958A" d="M-45,-34L-45,-68L-24,-46Z"/></g><path class="o" fill="#D98A45" d="M0,-50C34,-50 58,-30 58,-2C58,10 62,16 70,24C56,26 50,40 30,47C18,51-18,51-30,47C-50,40-56,26-70,24C-62,16-58,10-58,-2C-58,-30-34,-50 0,-50Z"/><path class="n" stroke="#B5652A" stroke-width="5" d="M0,-42L0,-30M-13,-40L-11,-29M13,-40L11,-29"/><path class="n" stroke="#B5652A" stroke-width="4" d="M54,6L45,9M56,15L47,17"/><g transform="scale(-1,1)"><path class="n" stroke="#B5652A" stroke-width="4" d="M54,6L45,9M56,15L47,17"/></g><ellipse cy="24" rx="26" ry="18" fill="#F7EBDD"/><path class="o n t" opacity=".7" d="M30,22L70,15M30,26L73,27M30,30L69,37"/><circle cx="25" cy="-3" r="18" fill="#fff" opacity=".3"/><g transform="scale(-1,1)"><path class="o n t" opacity=".7" d="M30,22L70,15M30,26L73,27M30,30L69,37"/><circle cx="25" cy="-3" r="18" fill="#fff" opacity=".3"/></g><g transform="translate(-25,-3) scale(-1,1) rotate(-8)"><circle r="16.5" fill="#F4F8FA"/><path class="n" stroke="#B9D3E0" stroke-width="4" d="M-8,7L7,-8M1,10L10,1"/></g><g transform="translate(25,-3) scale(1,1) rotate(-8)"><circle r="16.5" fill="#F4F8FA"/><path class="n" stroke="#B9D3E0" stroke-width="4" d="M-8,7L7,-8M1,10L10,1"/></g><circle class="o n" cx="25" cy="-3" r="18"/><path class="o n" d="M43,-5L56,-9"/><g transform="scale(-1,1)"><circle class="o n" cx="25" cy="-3" r="18"/><path class="o n" d="M43,-5L56,-9"/></g><path class="o n" d="M-7,-5Q0,-10 7,-5"/><path class="o t" fill="#D9958A" d="M-5,14Q0,12 5,14Q3,20 0,20.5Q-3,20-5,14Z"/><path class="o n t" d="M-9,25Q3,32 11,23"/><path class="o t" fill="#C9A24B" transform="translate(45,-22)" d="M0,-10Q0,0 10,0Q0,0 0,10Q0,0 -10,0Q0,0 0,-10Z"/></g><text x="500" y="375" font-size="17" style="fill:#2B2320;text-anchor:middle;font-style:italic">Smug</text></g><g transform="translate(20,440) scale(1)"><rect width="400" height="400" rx="24" fill="#F3EDE2"/><rect x="170" y="40" width="206" height="140" rx="4" fill="#2F5548" stroke="#9C6B43" stroke-width="8"/><text x="273" y="76" font-size="15" style="fill:#CFE0D8;text-anchor:middle;font-style:italic">Lesson 1 · Fish Arithmetic</text><g transform="translate(206,122) scale(1)"><g class="n" stroke="#fff" stroke-width="2.5"><ellipse rx="17" ry="9"/><path d="M15,0L28,-8L28,8Z"/><circle cx="-8" cy="-2" r="1"/></g></g><text x="250" y="131" font-size="28" style="fill:#fff;text-anchor:middle;">+</text><g transform="translate(284,122) scale(1)"><g class="n" stroke="#fff" stroke-width="2.5"><ellipse rx="17" ry="9"/><path d="M15,0L28,-8L28,8Z"/><circle cx="-8" cy="-2" r="1"/></g></g><text x="328" y="131" font-size="28" style="fill:#fff;text-anchor:middle;">=</text><text x="354" y="133" font-size="32" style="fill:#E8C66A;text-anchor:middle;">?</text><g transform="translate(115,175) scale(0.82)"><ellipse cy="188" rx="72" ry="7" opacity=".1"/><path class="n" d="M-40,160C-80,176-112,150-104,112C-101,98-108,88-118,86" stroke="#2B2320" stroke-width="15.4"/><path class="n" d="M-40,160C-80,176-112,150-104,112C-101,98-108,88-118,86" stroke="#D98A45" stroke-width="11"/><path class="n" d="M-104,112C-101,98-108,88-118,86" stroke="#F7EBDD" stroke-width="11"/><rect class="o" x="5" y="140" width="27" height="38" rx="4" fill="#3A3A44"/><g transform="scale(-1,1)"><rect class="o" x="5" y="140" width="27" height="38" rx="4" fill="#3A3A44"/></g><path class="o" fill="#33415C" d="M-30,44C-46,60-50,110-46,150L46,150C50,110 46,60 30,44Z"/><path class="o t" fill="#fff" d="M-15,46L0,100L15,46Z"/><path class="o t" fill="#8C2F39" d="M-5,50L5,50L3,60L6,86L0,93L-6,86L-3,60Z"/><path class="o n t" d="M-3,60L3,60"/><path class="o t" fill="#3F5074" d="M-15,46L0,100L-9,102L-26,62Z"/><g transform="scale(-1,1)"><path class="o t" fill="#3F5074" d="M-15,46L0,100L-9,102L-26,62Z"/></g><path class="o n t" d="M0,100L0,150"/><circle cx="0" cy="120" r="3" fill="#C9A24B"/><circle cx="0" cy="136" r="3" fill="#C9A24B"/><ellipse class="o" cx="20" cy="178" rx="17" ry="8" fill="#F7EBDD"/><g transform="scale(-1,1)"><ellipse class="o" cx="20" cy="178" rx="17" ry="8" fill="#F7EBDD"/></g><path class="o" fill="#D98A45" d="M-52,-16L-50,-76Q-47,-84-40,-78L-10,-44Z"/><path fill="#D9958A" d="M-45,-34L-45,-68L-24,-46Z"/><g transform="scale(-1,1)"><path class="o" fill="#D98A45" d="M-52,-16L-50,-76Q-47,-84-40,-78L-10,-44Z"/><path fill="#D9958A" d="M-45,-34L-45,-68L-24,-46Z"/></g><path class="o" fill="#D98A45" d="M0,-50C34,-50 58,-30 58,-2C58,10 62,16 70,24C56,26 50,40 30,47C18,51-18,51-30,47C-50,40-56,26-70,24C-62,16-58,10-58,-2C-58,-30-34,-50 0,-50Z"/><path class="n" stroke="#B5652A" stroke-width="5" d="M0,-42L0,-30M-13,-40L-11,-29M13,-40L11,-29"/><path class="n" stroke="#B5652A" stroke-width="4" d="M54,6L45,9M56,15L47,17"/><g transform="scale(-1,1)"><path class="n" stroke="#B5652A" stroke-width="4" d="M54,6L45,9M56,15L47,17"/></g><ellipse cy="24" rx="26" ry="18" fill="#F7EBDD"/><path class="o n t" opacity=".7" d="M30,22L70,15M30,26L73,27M30,30L69,37"/><circle cx="25" cy="-3" r="18" fill="#fff" opacity=".3"/><g transform="scale(-1,1)"><path class="o n t" opacity=".7" d="M30,22L70,15M30,26L73,27M30,30L69,37"/><circle cx="25" cy="-3" r="18" fill="#fff" opacity=".3"/></g><g transform="translate(-25,-3) scale(-1,1) rotate(-8)"><path class="o t" fill="#8DA868" d="M-10,1C-6,-9 5,-10 10,-2C6,8-5,9-10,1Z"/><ellipse cy="-0.5" rx="2.8" ry="5.2" fill="#2B2320"/><circle cx="-3" cy="-3.5" r="1.6" fill="#fff"/><path class="o n b" d="M-10,1C-6,-9 5,-10 10,-2"/></g><g transform="translate(25,-3) scale(1,1) rotate(-8)"><path class="o t" fill="#8DA868" d="M-10,1C-6,-9 5,-10 10,-2C6,8-5,9-10,1Z"/><ellipse cy="-0.5" rx="2.8" ry="5.2" fill="#2B2320"/><circle cx="-3" cy="-3.5" r="1.6" fill="#fff"/><path class="o n b" d="M-10,1C-6,-9 5,-10 10,-2"/></g><circle class="o n" cx="25" cy="-3" r="18"/><path class="o n" d="M43,-5L56,-9"/><g transform="scale(-1,1)"><circle class="o n" cx="25" cy="-3" r="18"/><path class="o n" d="M43,-5L56,-9"/></g><path class="o n" d="M-7,-5Q0,-10 7,-5"/><path class="o t" fill="#D9958A" d="M-5,14Q0,12 5,14Q3,20 0,20.5Q-3,20-5,14Z"/><path class="o n t" d="M-12,23Q-11,29-6,29Q0,29 0,21Q0,29 6,29Q11,29 12,23"/><path class="n" d="M-40,64L-52,122" stroke="#2B2320" stroke-width="19.4"/><path class="n" d="M-40,64L-52,122" stroke="#33415C" stroke-width="15"/><circle class="o" cx="-52" cy="122" r="8.5" fill="#F7EBDD"/><path class="n" stroke="#9C6B43" stroke-width="4" d="M76,40L225,-28"/><circle cx="225" cy="-28" r="3.5" fill="#8C2F39"/><path class="n" d="M38,62L76,40" stroke="#2B2320" stroke-width="19.4"/><path class="n" d="M38,62L76,40" stroke="#33415C" stroke-width="15"/><circle class="o" cx="76" cy="40" r="8.5" fill="#F7EBDD"/></g><text x="200" y="374" font-size="24" style="fill:#2B2320;text-anchor:middle;font-style:italic">Class is in session.</text></g><g transform="translate(440,440) scale(1)"><rect width="400" height="400" rx="24" fill="#E6E9F0"/><text x="64" y="110" font-size="34" style="fill:#33415C;text-anchor:middle;font-style:italic">A</text><text x="338" y="90" font-size="34" style="fill:#8C2F39;text-anchor:middle;font-style:italic">&#931;</text><text x="344" y="214" font-size="34" style="fill:#5B7F62;text-anchor:middle;font-style:italic">&#960;</text><text x="60" y="226" font-size="34" style="fill:#7A6A99;text-anchor:middle;font-style:italic">&#8730;</text><g transform="translate(206,122) scale(1)"><ellipse cy="188" rx="72" ry="7" opacity=".1"/><path class="n" d="M-40,160C-80,176-112,150-104,112C-101,98-108,88-118,86" stroke="#2B2320" stroke-width="15.4"/><path class="n" d="M-40,160C-80,176-112,150-104,112C-101,98-108,88-118,86" stroke="#D98A45" stroke-width="11"/><path class="n" d="M-104,112C-101,98-108,88-118,86" stroke="#F7EBDD" stroke-width="11"/><rect class="o" x="5" y="140" width="27" height="38" rx="4" fill="#3A3A44"/><g transform="scale(-1,1)"><rect class="o" x="5" y="140" width="27" height="38" rx="4" fill="#3A3A44"/></g><path class="o" fill="#33415C" d="M-30,44C-46,60-50,110-46,150L46,150C50,110 46,60 30,44Z"/><path class="o t" fill="#fff" d="M-15,46L0,100L15,46Z"/><path class="o t" fill="#8C2F39" d="M-5,50L5,50L3,60L6,86L0,93L-6,86L-3,60Z"/><path class="o n t" d="M-3,60L3,60"/><path class="o t" fill="#3F5074" d="M-15,46L0,100L-9,102L-26,62Z"/><g transform="scale(-1,1)"><path class="o t" fill="#3F5074" d="M-15,46L0,100L-9,102L-26,62Z"/></g><path class="o n t" d="M0,100L0,150"/><circle cx="0" cy="120" r="3" fill="#C9A24B"/><circle cx="0" cy="136" r="3" fill="#C9A24B"/><ellipse class="o" cx="20" cy="178" rx="17" ry="8" fill="#F7EBDD"/><g transform="scale(-1,1)"><ellipse class="o" cx="20" cy="178" rx="17" ry="8" fill="#F7EBDD"/></g><path class="o" fill="#D98A45" d="M-52,-16L-50,-76Q-47,-84-40,-78L-10,-44Z"/><path fill="#D9958A" d="M-45,-34L-45,-68L-24,-46Z"/><g transform="scale(-1,1)"><path class="o" fill="#D98A45" d="M-52,-16L-50,-76Q-47,-84-40,-78L-10,-44Z"/><path fill="#D9958A" d="M-45,-34L-45,-68L-24,-46Z"/></g><path class="o" fill="#D98A45" d="M0,-50C34,-50 58,-30 58,-2C58,10 62,16 70,24C56,26 50,40 30,47C18,51-18,51-30,47C-50,40-56,26-70,24C-62,16-58,10-58,-2C-58,-30-34,-50 0,-50Z"/><path class="n" stroke="#B5652A" stroke-width="5" d="M0,-42L0,-30M-13,-40L-11,-29M13,-40L11,-29"/><path class="n" stroke="#B5652A" stroke-width="4" d="M54,6L45,9M56,15L47,17"/><g transform="scale(-1,1)"><path class="n" stroke="#B5652A" stroke-width="4" d="M54,6L45,9M56,15L47,17"/></g><ellipse cy="24" rx="26" ry="18" fill="#F7EBDD"/><path class="o n t" opacity=".7" d="M30,22L70,15M30,26L73,27M30,30L69,37"/><circle cx="25" cy="-3" r="18" fill="#fff" opacity=".3"/><g transform="scale(-1,1)"><path class="o n t" opacity=".7" d="M30,22L70,15M30,26L73,27M30,30L69,37"/><circle cx="25" cy="-3" r="18" fill="#fff" opacity=".3"/></g><g transform="translate(-25,-3) scale(-1,1) rotate(-8)"><path class="o n b" d="M-9,2Q0,-8 9,2"/></g><g transform="translate(25,-3) scale(1,1) rotate(-8)"><path class="o n b" d="M-9,2Q0,-8 9,2"/></g><circle class="o n" cx="25" cy="-3" r="18"/><path class="o n" d="M43,-5L56,-9"/><g transform="scale(-1,1)"><circle class="o n" cx="25" cy="-3" r="18"/><path class="o n" d="M43,-5L56,-9"/></g><path class="o n" d="M-7,-5Q0,-10 7,-5"/><path class="o t" fill="#D9958A" d="M-5,14Q0,12 5,14Q3,20 0,20.5Q-3,20-5,14Z"/><path class="o n t" d="M-12,23Q-11,29-6,29Q0,29 0,21Q0,29 6,29Q11,29 12,23"/><path class="o" fill="#8C2F39" d="M0,112L-44,103L-44,141L0,150L44,141L44,103Z"/><path class="o t" fill="#fff" d="M0,112L-44,103L-44,98L0,107L44,98L44,103Z"/><path class="o n t" d="M0,112L0,150"/><g transform="translate(21,126) scale(0.55)"><g class="n" stroke="#C9A24B" stroke-width="2.5"><ellipse rx="17" ry="9"/><path d="M15,0L28,-8L28,8Z"/><circle cx="-8" cy="-2" r="1"/></g></g><path class="n" d="M-40,66L-48,126" stroke="#2B2320" stroke-width="19.4"/><path class="n" d="M-40,66L-48,126" stroke="#33415C" stroke-width="15"/><circle class="o" cx="-48" cy="126" r="8.5" fill="#F7EBDD"/><path class="n" d="M40,66L48,126" stroke="#2B2320" stroke-width="19.4"/><path class="n" d="M40,66L48,126" stroke="#33415C" stroke-width="15"/><circle class="o" cx="48" cy="126" r="8.5" fill="#F7EBDD"/></g><text x="200" y="374" font-size="24" style="fill:#2B2320;text-anchor:middle;font-style:italic">Read widely.</text></g><g transform="translate(860,440) scale(1)"><rect width="400" height="400" rx="24" fill="#E4EAE4"/><g transform="translate(212,118) scale(0.9)"><ellipse cy="188" rx="72" ry="7" opacity=".1"/><path class="n" d="M-40,160C-80,176-112,150-104,112C-101,98-108,88-118,86" stroke="#2B2320" stroke-width="15.4"/><path class="n" d="M-40,160C-80,176-112,150-104,112C-101,98-108,88-118,86" stroke="#D98A45" stroke-width="11"/><path class="n" d="M-104,112C-101,98-108,88-118,86" stroke="#F7EBDD" stroke-width="11"/><rect class="o" x="5" y="140" width="27" height="38" rx="4" fill="#3A3A44"/><g transform="scale(-1,1)"><rect class="o" x="5" y="140" width="27" height="38" rx="4" fill="#3A3A44"/></g><path class="o" fill="#33415C" d="M-30,44C-46,60-50,110-46,150L46,150C50,110 46,60 30,44Z"/><path class="o t" fill="#fff" d="M-15,46L0,100L15,46Z"/><path class="o t" fill="#8C2F39" d="M-5,50L5,50L3,60L6,86L0,93L-6,86L-3,60Z"/><path class="o n t" d="M-3,60L3,60"/><path class="o t" fill="#3F5074" d="M-15,46L0,100L-9,102L-26,62Z"/><g transform="scale(-1,1)"><path class="o t" fill="#3F5074" d="M-15,46L0,100L-9,102L-26,62Z"/></g><path class="o n t" d="M0,100L0,150"/><circle cx="0" cy="120" r="3" fill="#C9A24B"/><circle cx="0" cy="136" r="3" fill="#C9A24B"/><ellipse class="o" cx="20" cy="178" rx="17" ry="8" fill="#F7EBDD"/><g transform="scale(-1,1)"><ellipse class="o" cx="20" cy="178" rx="17" ry="8" fill="#F7EBDD"/></g><path class="o" fill="#D98A45" d="M-52,-16L-50,-76Q-47,-84-40,-78L-10,-44Z"/><path fill="#D9958A" d="M-45,-34L-45,-68L-24,-46Z"/><g transform="scale(-1,1)"><path class="o" fill="#D98A45" d="M-52,-16L-50,-76Q-47,-84-40,-78L-10,-44Z"/><path fill="#D9958A" d="M-45,-34L-45,-68L-24,-46Z"/></g><path class="o" fill="#D98A45" d="M0,-50C34,-50 58,-30 58,-2C58,10 62,16 70,24C56,26 50,40 30,47C18,51-18,51-30,47C-50,40-56,26-70,24C-62,16-58,10-58,-2C-58,-30-34,-50 0,-50Z"/><path class="n" stroke="#B5652A" stroke-width="5" d="M0,-42L0,-30M-13,-40L-11,-29M13,-40L11,-29"/><path class="n" stroke="#B5652A" stroke-width="4" d="M54,6L45,9M56,15L47,17"/><g transform="scale(-1,1)"><path class="n" stroke="#B5652A" stroke-width="4" d="M54,6L45,9M56,15L47,17"/></g><ellipse cy="24" rx="26" ry="18" fill="#F7EBDD"/><path class="o n t" opacity=".7" d="M30,22L70,15M30,26L73,27M30,30L69,37"/><circle cx="25" cy="-3" r="18" fill="#fff" opacity=".3"/><g transform="scale(-1,1)"><path class="o n t" opacity=".7" d="M30,22L70,15M30,26L73,27M30,30L69,37"/><circle cx="25" cy="-3" r="18" fill="#fff" opacity=".3"/></g><g transform="translate(-25,-3) scale(-1,1) rotate(-8)"><path class="o n b" d="M-9,2Q0,-8 9,2"/></g><g transform="translate(25,-3) scale(1,1) rotate(-8)"><path class="o n b" d="M-9,2Q0,-8 9,2"/></g><circle class="o n" cx="25" cy="-3" r="18"/><path class="o n" d="M43,-5L56,-9"/><g transform="scale(-1,1)"><circle class="o n" cx="25" cy="-3" r="18"/><path class="o n" d="M43,-5L56,-9"/></g><path class="o n" d="M-7,-5Q0,-10 7,-5"/><path class="o t" fill="#D9958A" d="M-5,14Q0,12 5,14Q3,20 0,20.5Q-3,20-5,14Z"/><path class="o t" fill="#8C3A3A" d="M-6,29Q0,29 0,21Q0,29 6,29Q5,38 0,38Q-5,38-6,29Z"/><path class="o n t" d="M-12,23Q-11,29-6,29Q0,29 0,21Q0,29 6,29Q11,29 12,23"/></g><rect class="o" x="20" y="262" width="360" height="80" rx="8" fill="#9C6B43"/><rect class="o t" x="282" y="249" width="80" height="13" rx="3" fill="#33415C"/><rect class="o t" x="277" y="236" width="80" height="13" rx="3" fill="#5B7F62"/><rect class="o t" x="272" y="223" width="80" height="13" rx="3" fill="#C9A24B"/><circle class="o" cx="58" cy="249" r="13" fill="#8C2F39"/><path class="o n t" d="M58,238Q58,231 63,227"/><g transform="translate(212,118) scale(0.9)"><g transform="translate(-94,18) scale(1)"><g transform="rotate(-8)"><rect class="o" x="-32" y="-42" width="64" height="84" rx="3" fill="#fff"/><path class="n" stroke="#C9CED6" stroke-width="2.5" d="M-22,-29L22,-29M-22,-19L6,-19"/><text x="0" y="12" font-size="30" style="fill:#8C2F39;text-anchor:middle;font-weight:bold">A+</text><path class="n" stroke="#8C2F39" stroke-width="2" d="M-20,21L20,17M-20,27L20,23"/></g></g><path class="n" d="M-38,62L-70,46" stroke="#2B2320" stroke-width="19.4"/><path class="n" d="M-38,62L-70,46" stroke="#33415C" stroke-width="15"/><circle class="o" cx="-70" cy="46" r="8.5" fill="#F7EBDD"/><path class="n" stroke="#8C2F39" stroke-width="6" d="M67,51L86,12"/><path class="n" stroke="#2B2320" stroke-width="2.5" d="M86,12L89,6"/><path class="n" d="M38,62L70,46" stroke="#2B2320" stroke-width="19.4"/><path class="n" d="M38,62L70,46" stroke="#33415C" stroke-width="15"/><circle class="o" cx="70" cy="46" r="8.5" fill="#F7EBDD"/></g><text x="200" y="374" font-size="24" style="fill:#2B2320;text-anchor:middle;font-style:italic">Full marks!</text></g><g transform="translate(20,860) scale(1)"><rect width="400" height="400" rx="24" fill="#F0E4DF"/><path class="o t" fill="#C9A24B" transform="translate(70,120)" d="M0,-10Q0,0 10,0Q0,0 0,10Q0,0 -10,0Q0,0 0,-10Z"/><path class="o t" fill="#C9A24B" transform="translate(340,76)" d="M0,-13Q0,0 13,0Q0,0 0,13Q0,0 -13,0Q0,0 0,-13Z"/><path class="o t" fill="#C9A24B" transform="translate(326,236)" d="M0,-8Q0,0 8,0Q0,0 0,8Q0,0 -8,0Q0,0 0,-8Z"/><path class="o t" fill="#C9A24B" transform="translate(84,60)" d="M0,-7Q0,0 7,0Q0,0 0,7Q0,0 -7,0Q0,0 0,-7Z"/><g transform="translate(196,122) scale(1)"><ellipse cy="188" rx="72" ry="7" opacity=".1"/><path class="n" d="M-40,160C-80,176-112,150-104,112C-101,98-108,88-118,86" stroke="#2B2320" stroke-width="15.4"/><path class="n" d="M-40,160C-80,176-112,150-104,112C-101,98-108,88-118,86" stroke="#D98A45" stroke-width="11"/><path class="n" d="M-104,112C-101,98-108,88-118,86" stroke="#F7EBDD" stroke-width="11"/><rect class="o" x="5" y="140" width="27" height="38" rx="4" fill="#3A3A44"/><g transform="scale(-1,1)"><rect class="o" x="5" y="140" width="27" height="38" rx="4" fill="#3A3A44"/></g><path class="o" fill="#33415C" d="M-30,44C-46,60-50,110-46,150L46,150C50,110 46,60 30,44Z"/><path class="o t" fill="#fff" d="M-15,46L0,100L15,46Z"/><path class="o t" fill="#8C2F39" d="M-5,50L5,50L3,60L6,86L0,93L-6,86L-3,60Z"/><path class="o n t" d="M-3,60L3,60"/><path class="o t" fill="#3F5074" d="M-15,46L0,100L-9,102L-26,62Z"/><g transform="scale(-1,1)"><path class="o t" fill="#3F5074" d="M-15,46L0,100L-9,102L-26,62Z"/></g><path class="o n t" d="M0,100L0,150"/><circle cx="0" cy="120" r="3" fill="#C9A24B"/><circle cx="0" cy="136" r="3" fill="#C9A24B"/><ellipse class="o" cx="20" cy="178" rx="17" ry="8" fill="#F7EBDD"/><g transform="scale(-1,1)"><ellipse class="o" cx="20" cy="178" rx="17" ry="8" fill="#F7EBDD"/></g><path class="o" fill="#D98A45" d="M-52,-16L-50,-76Q-47,-84-40,-78L-10,-44Z"/><path fill="#D9958A" d="M-45,-34L-45,-68L-24,-46Z"/><g transform="scale(-1,1)"><path class="o" fill="#D98A45" d="M-52,-16L-50,-76Q-47,-84-40,-78L-10,-44Z"/><path fill="#D9958A" d="M-45,-34L-45,-68L-24,-46Z"/></g><path class="o" fill="#D98A45" d="M0,-50C34,-50 58,-30 58,-2C58,10 62,16 70,24C56,26 50,40 30,47C18,51-18,51-30,47C-50,40-56,26-70,24C-62,16-58,10-58,-2C-58,-30-34,-50 0,-50Z"/><path class="n" stroke="#B5652A" stroke-width="5" d="M0,-42L0,-30M-13,-40L-11,-29M13,-40L11,-29"/><path class="n" stroke="#B5652A" stroke-width="4" d="M54,6L45,9M56,15L47,17"/><g transform="scale(-1,1)"><path class="n" stroke="#B5652A" stroke-width="4" d="M54,6L45,9M56,15L47,17"/></g><ellipse cy="24" rx="26" ry="18" fill="#F7EBDD"/><path class="o n t" opacity=".7" d="M30,22L70,15M30,26L73,27M30,30L69,37"/><circle cx="25" cy="-3" r="18" fill="#fff" opacity=".3"/><g transform="scale(-1,1)"><path class="o n t" opacity=".7" d="M30,22L70,15M30,26L73,27M30,30L69,37"/><circle cx="25" cy="-3" r="18" fill="#fff" opacity=".3"/></g><g transform="translate(-25,-3) scale(-1,1) rotate(-8)"><path class="o n b" d="M-9,2Q0,-8 9,2"/></g><g transform="translate(25,-3) scale(1,1) rotate(-8)"><path class="o n b" d="M-9,2Q0,-8 9,2"/></g><circle class="o n" cx="25" cy="-3" r="18"/><path class="o n" d="M43,-5L56,-9"/><g transform="scale(-1,1)"><circle class="o n" cx="25" cy="-3" r="18"/><path class="o n" d="M43,-5L56,-9"/></g><path class="o n" d="M-7,-5Q0,-10 7,-5"/><path class="o t" fill="#D9958A" d="M-5,14Q0,12 5,14Q3,20 0,20.5Q-3,20-5,14Z"/><path class="o t" fill="#8C3A3A" d="M-6,29Q0,29 0,21Q0,29 6,29Q5,38 0,38Q-5,38-6,29Z"/><path class="o n t" d="M-12,23Q-11,29-6,29Q0,29 0,21Q0,29 6,29Q11,29 12,23"/><path class="n" d="M-40,64L-52,122" stroke="#2B2320" stroke-width="19.4"/><path class="n" d="M-40,64L-52,122" stroke="#33415C" stroke-width="15"/><circle class="o" cx="-52" cy="122" r="8.5" fill="#F7EBDD"/><polygon class="o" fill="#C9A24B" points="90.0,-20.0 96.3,-4.7 112.8,-3.4 100.3,7.3 104.1,23.4 90.0,14.8 75.9,23.4 79.7,7.3 67.2,-3.4 83.7,-4.7"/><path class="n" d="M38,62L82,32" stroke="#2B2320" stroke-width="19.4"/><path class="n" d="M38,62L82,32" stroke="#33415C" stroke-width="15"/><circle class="o" cx="82" cy="32" r="8.5" fill="#F7EBDD"/></g><text x="200" y="374" font-size="24" style="fill:#2B2320;text-anchor:middle;font-style:italic">Well done.</text></g><g transform="translate(440,860) scale(1)"><rect width="400" height="400" rx="24" fill="#E6E9F0"/><path class="o" fill="#fff" d="M128.7,112.4A64,42 0 1 1 147.4,99L166,130Z"/><text x="92" y="95" font-size="46" style="fill:#8C2F39;text-anchor:middle;font-weight:bold">?</text><g transform="translate(238,140) scale(0.95)"><ellipse cy="188" rx="72" ry="7" opacity=".1"/><path class="n" d="M-40,160C-80,176-112,150-104,112C-101,98-108,88-118,86" stroke="#2B2320" stroke-width="15.4"/><path class="n" d="M-40,160C-80,176-112,150-104,112C-101,98-108,88-118,86" stroke="#D98A45" stroke-width="11"/><path class="n" d="M-104,112C-101,98-108,88-118,86" stroke="#F7EBDD" stroke-width="11"/><rect class="o" x="5" y="140" width="27" height="38" rx="4" fill="#3A3A44"/><g transform="scale(-1,1)"><rect class="o" x="5" y="140" width="27" height="38" rx="4" fill="#3A3A44"/></g><path class="o" fill="#33415C" d="M-30,44C-46,60-50,110-46,150L46,150C50,110 46,60 30,44Z"/><path class="o t" fill="#fff" d="M-15,46L0,100L15,46Z"/><path class="o t" fill="#8C2F39" d="M-5,50L5,50L3,60L6,86L0,93L-6,86L-3,60Z"/><path class="o n t" d="M-3,60L3,60"/><path class="o t" fill="#3F5074" d="M-15,46L0,100L-9,102L-26,62Z"/><g transform="scale(-1,1)"><path class="o t" fill="#3F5074" d="M-15,46L0,100L-9,102L-26,62Z"/></g><path class="o n t" d="M0,100L0,150"/><circle cx="0" cy="120" r="3" fill="#C9A24B"/><circle cx="0" cy="136" r="3" fill="#C9A24B"/><ellipse class="o" cx="20" cy="178" rx="17" ry="8" fill="#F7EBDD"/><g transform="scale(-1,1)"><ellipse class="o" cx="20" cy="178" rx="17" ry="8" fill="#F7EBDD"/></g><path class="o" fill="#D98A45" d="M-52,-16L-50,-76Q-47,-84-40,-78L-10,-44Z"/><path fill="#D9958A" d="M-45,-34L-45,-68L-24,-46Z"/><g transform="scale(-1,1)"><path class="o" fill="#D98A45" d="M-52,-16L-50,-76Q-47,-84-40,-78L-10,-44Z"/><path fill="#D9958A" d="M-45,-34L-45,-68L-24,-46Z"/></g><path class="o" fill="#D98A45" d="M0,-50C34,-50 58,-30 58,-2C58,10 62,16 70,24C56,26 50,40 30,47C18,51-18,51-30,47C-50,40-56,26-70,24C-62,16-58,10-58,-2C-58,-30-34,-50 0,-50Z"/><path class="n" stroke="#B5652A" stroke-width="5" d="M0,-42L0,-30M-13,-40L-11,-29M13,-40L11,-29"/><path class="n" stroke="#B5652A" stroke-width="4" d="M54,6L45,9M56,15L47,17"/><g transform="scale(-1,1)"><path class="n" stroke="#B5652A" stroke-width="4" d="M54,6L45,9M56,15L47,17"/></g><ellipse cy="24" rx="26" ry="18" fill="#F7EBDD"/><path class="o n t" opacity=".7" d="M30,22L70,15M30,26L73,27M30,30L69,37"/><circle cx="25" cy="-3" r="18" fill="#fff" opacity=".3"/><g transform="scale(-1,1)"><path class="o n t" opacity=".7" d="M30,22L70,15M30,26L73,27M30,30L69,37"/><circle cx="25" cy="-3" r="18" fill="#fff" opacity=".3"/></g><g transform="translate(-25,-3) scale(-1,1) rotate(-8)"><path class="o t" fill="#8DA868" d="M-10,1C-6,-9 5,-10 10,-2C6,8-5,9-10,1Z"/><ellipse cy="-0.5" rx="2.8" ry="5.2" fill="#2B2320"/><circle cx="-3" cy="-3.5" r="1.6" fill="#fff"/><path class="o n b" d="M-10,1C-6,-9 5,-10 10,-2"/></g><g transform="translate(25,-3) scale(1,1) rotate(-8)"><path class="o t" fill="#8DA868" d="M-10,1C-6,-9 5,-10 10,-2C6,8-5,9-10,1Z"/><ellipse cy="-0.5" rx="2.8" ry="5.2" fill="#2B2320"/><circle cx="-3" cy="-3.5" r="1.6" fill="#fff"/><path class="o n b" d="M-10,1C-6,-9 5,-10 10,-2"/></g><circle class="o n" cx="25" cy="-3" r="18"/><path class="o n" d="M43,-5L56,-9"/><g transform="scale(-1,1)"><circle class="o n" cx="25" cy="-3" r="18"/><path class="o n" d="M43,-5L56,-9"/></g><path class="o n" d="M-7,-5Q0,-10 7,-5"/><path class="o t" fill="#D9958A" d="M-5,14Q0,12 5,14Q3,20 0,20.5Q-3,20-5,14Z"/><path class="o t" fill="#8C3A3A" d="M-6,29Q0,29 0,21Q0,29 6,29Q5,38 0,38Q-5,38-6,29Z"/><path class="o n t" d="M-12,23Q-11,29-6,29Q0,29 0,21Q0,29 6,29Q11,29 12,23"/><path class="n" d="M-40,64L-52,122" stroke="#2B2320" stroke-width="19.4"/><path class="n" d="M-40,64L-52,122" stroke="#33415C" stroke-width="15"/><circle class="o" cx="-52" cy="122" r="8.5" fill="#F7EBDD"/><path class="n" d="M38,62L88,22" stroke="#2B2320" stroke-width="19.4"/><path class="n" d="M38,62L88,22" stroke="#33415C" stroke-width="15"/><circle class="o" cx="88" cy="22" r="8.5" fill="#F7EBDD"/></g><text x="200" y="374" font-size="24" style="fill:#2B2320;text-anchor:middle;font-style:italic">Any questions?</text></g><g transform="translate(860,860) scale(1)"><rect width="400" height="400" rx="24" fill="#EFE6D2"/><g transform="translate(84,92) scale(1.3)"><g transform="rotate(-18)"><path class="o n" d="M0,-18L0,-25"/><path class="o" fill="#C9A24B" d="M-16,8Q-16,-16 0,-18Q16,-16 16,8L21,14L-21,14Z"/><circle class="o t" cy="19" r="4" fill="#2B2320"/><path class="o n t" d="M-30,-10Q-37,1-30,12M30,-10Q37,1 30,12"/></g></g><text x="84" y="152" font-size="15" style="fill:#2B2320;text-anchor:middle;font-style:italic">ring, ring</text><g transform="translate(226,128) scale(0.95)"><ellipse cy="188" rx="72" ry="7" opacity=".1"/><path class="n" d="M-40,160C-80,176-112,150-104,112C-101,98-108,88-118,86" stroke="#2B2320" stroke-width="15.4"/><path class="n" d="M-40,160C-80,176-112,150-104,112C-101,98-108,88-118,86" stroke="#D98A45" stroke-width="11"/><path class="n" d="M-104,112C-101,98-108,88-118,86" stroke="#F7EBDD" stroke-width="11"/><rect class="o" x="5" y="140" width="27" height="38" rx="4" fill="#3A3A44"/><g transform="scale(-1,1)"><rect class="o" x="5" y="140" width="27" height="38" rx="4" fill="#3A3A44"/></g><path class="o" fill="#33415C" d="M-30,44C-46,60-50,110-46,150L46,150C50,110 46,60 30,44Z"/><path class="o t" fill="#fff" d="M-15,46L0,100L15,46Z"/><path class="o t" fill="#8C2F39" d="M-5,50L5,50L3,60L6,86L0,93L-6,86L-3,60Z"/><path class="o n t" d="M-3,60L3,60"/><path class="o t" fill="#3F5074" d="M-15,46L0,100L-9,102L-26,62Z"/><g transform="scale(-1,1)"><path class="o t" fill="#3F5074" d="M-15,46L0,100L-9,102L-26,62Z"/></g><path class="o n t" d="M0,100L0,150"/><circle cx="0" cy="120" r="3" fill="#C9A24B"/><circle cx="0" cy="136" r="3" fill="#C9A24B"/><ellipse class="o" cx="20" cy="178" rx="17" ry="8" fill="#F7EBDD"/><g transform="scale(-1,1)"><ellipse class="o" cx="20" cy="178" rx="17" ry="8" fill="#F7EBDD"/></g><path class="o" fill="#D98A45" d="M-52,-16L-50,-76Q-47,-84-40,-78L-10,-44Z"/><path fill="#D9958A" d="M-45,-34L-45,-68L-24,-46Z"/><g transform="scale(-1,1)"><path class="o" fill="#D98A45" d="M-52,-16L-50,-76Q-47,-84-40,-78L-10,-44Z"/><path fill="#D9958A" d="M-45,-34L-45,-68L-24,-46Z"/></g><path class="o" fill="#D98A45" d="M0,-50C34,-50 58,-30 58,-2C58,10 62,16 70,24C56,26 50,40 30,47C18,51-18,51-30,47C-50,40-56,26-70,24C-62,16-58,10-58,-2C-58,-30-34,-50 0,-50Z"/><path class="n" stroke="#B5652A" stroke-width="5" d="M0,-42L0,-30M-13,-40L-11,-29M13,-40L11,-29"/><path class="n" stroke="#B5652A" stroke-width="4" d="M54,6L45,9M56,15L47,17"/><g transform="scale(-1,1)"><path class="n" stroke="#B5652A" stroke-width="4" d="M54,6L45,9M56,15L47,17"/></g><ellipse cy="24" rx="26" ry="18" fill="#F7EBDD"/><path class="o n t" opacity=".7" d="M30,22L70,15M30,26L73,27M30,30L69,37"/><circle cx="25" cy="-3" r="18" fill="#fff" opacity=".3"/><g transform="scale(-1,1)"><path class="o n t" opacity=".7" d="M30,22L70,15M30,26L73,27M30,30L69,37"/><circle cx="25" cy="-3" r="18" fill="#fff" opacity=".3"/></g><g transform="translate(-25,-3) scale(-1,1) rotate(-8)"><path class="o n b" d="M-9,2Q0,-8 9,2"/></g><g transform="translate(25,-3) scale(1,1) rotate(-8)"><path class="o t" fill="#8DA868" d="M-10,1C-6,-9 5,-10 10,-2C6,8-5,9-10,1Z"/><ellipse cy="-0.5" rx="2.8" ry="5.2" fill="#2B2320"/><circle cx="-3" cy="-3.5" r="1.6" fill="#fff"/><path class="o n b" d="M-10,1C-6,-9 5,-10 10,-2"/></g><circle class="o n" cx="25" cy="-3" r="18"/><path class="o n" d="M43,-5L56,-9"/><g transform="scale(-1,1)"><circle class="o n" cx="25" cy="-3" r="18"/><path class="o n" d="M43,-5L56,-9"/></g><path class="o n" d="M-7,-5Q0,-10 7,-5"/><path class="o t" fill="#D9958A" d="M-5,14Q0,12 5,14Q3,20 0,20.5Q-3,20-5,14Z"/><path class="o t" fill="#8C3A3A" d="M-6,29Q0,29 0,21Q0,29 6,29Q5,38 0,38Q-5,38-6,29Z"/><path class="o n t" d="M-12,23Q-11,29-6,29Q0,29 0,21Q0,29 6,29Q11,29 12,23"/><path class="o n" d="M-64,132Q-52,112-40,132"/><rect class="o" x="-80" y="132" width="56" height="36" rx="4" fill="#9C6B43"/><rect class="o t" x="-57" y="144" width="10" height="8" rx="2" fill="#C9A24B"/><path class="n" d="M-40,64L-52,122" stroke="#2B2320" stroke-width="19.4"/><path class="n" d="M-40,64L-52,122" stroke="#33415C" stroke-width="15"/><circle class="o" cx="-52" cy="122" r="8.5" fill="#F7EBDD"/><path class="n" d="M38,62L88,22" stroke="#2B2320" stroke-width="19.4"/><path class="n" d="M38,62L88,22" stroke="#33415C" stroke-width="15"/><circle class="o" cx="88" cy="22" r="8.5" fill="#F7EBDD"/><path class="o n t" d="M102,4Q109,14 106,28M111,-2Q121,14 115,34"/></g><text x="200" y="374" font-size="24" style="fill:#2B2320;text-anchor:middle;font-style:italic">Class dismissed.</text></g></svg>